# xmcd
#
# Track frame offsets:
#  150
#  16558
#  40042
#  66346
#  112870
#  128177
#  152076
#  170114
#  190960
#
# Disc length: 2788 seconds
#
# Revision: 0
# Processed by: cddbd v1.5.1PL2 Copyright (c) Steve Scherf et al.
# Submitted via: Collectorz.com_Music_Collector 6.9
#
DISCID=6e0ae209
DTITLE=Warren Zevon - Chestnut Cabaret, December 8th, 1990 [CD1]
DYEAR=1900
DGENRE=
TTITLE0=Lawyers, Guns and Money
TTITLE1=Splendid Isolation
TTITLE2=Stop Breakin Down
TTITLE3=Roland The Headless Thompson Gunner
TTITLE4=One Woman Man
TTITLE5=Carmelita
TTITLE6=Things To Do In Denver When You're Dead
TTITLE7=Factory
TTITLE8=Poor Poor Pitiful Me
EXTD=
EXTT0=
EXTT1=
EXTT2=
EXTT3=
EXTT4=
EXTT5=
EXTT6=
EXTT7=
EXTT8=
PLAYORDER=
